<svg width="24" height="24" viewBox="0 0 24 24" fill="none" xmlns="http://www.w3.org/2000/svg">
<path d="M5.05829 13.9983C5.41975 5.44206 7.48885 3 12 3C16.5112 3 18.5802 5.44206 18.9417 13.9983C19.0116 15.6537 20.9415 16.4134 21.6724 17.9004C21.8074 18.175 21.9006 18.5335 21.9522 19.0013C22.0127 19.5503 21.5523 20 21 20H3C2.44772 20 1.98564 19.5487 2.05486 19.0008C2.10936 18.5694 2.20445 18.2305 2.34014 17.9643C3.09257 16.4882 4.98836 15.6537 5.05829 13.9983Z" fill="#AAAEB8"/>
<path d="M12 22C10.4 22 10 20.5 10 20H14C14 20.5 13.6 22 12 22Z" stroke="#AAAEB8" stroke-width="2" stroke-linecap="round"/>
</svg>
